%TF.GenerationSoftware,KiCad,Pcbnew,(6.0.2)*%
%TF.CreationDate,2022-12-01T14:11:06-05:00*%
%TF.ProjectId,VoltReadDevice,566f6c74-5265-4616-9444-65766963652e,rev?*%
%TF.SameCoordinates,Original*%
%TF.FileFunction,Copper,L1,Top*%
%TF.FilePolarity,Positive*%
%FSLAX46Y46*%
G04 Gerber Fmt 4.6, Leading zero omitted, Abs format (unit mm)*
G04 Created by KiCad (PCBNEW (6.0.2)) date 2022-12-01 14:11:06*
%MOMM*%
%LPD*%
G01*
G04 APERTURE LIST*
G04 Aperture macros list*
%AMRoundRect*
0 Rectangle with rounded corners*
0 $1 Rounding radius*
0 $2 $3 $4 $5 $6 $7 $8 $9 X,Y pos of 4 corners*
0 Add a 4 corners polygon primitive as box body*
4,1,4,$2,$3,$4,$5,$6,$7,$8,$9,$2,$3,0*
0 Add four circle primitives for the rounded corners*
1,1,$1+$1,$2,$3*
1,1,$1+$1,$4,$5*
1,1,$1+$1,$6,$7*
1,1,$1+$1,$8,$9*
0 Add four rect primitives between the rounded corners*
20,1,$1+$1,$2,$3,$4,$5,0*
20,1,$1+$1,$4,$5,$6,$7,0*
20,1,$1+$1,$6,$7,$8,$9,0*
20,1,$1+$1,$8,$9,$2,$3,0*%
G04 Aperture macros list end*
%ADD10C,0.300000*%
%TA.AperFunction,NonConductor*%
%ADD11C,0.300000*%
%TD*%
%ADD12C,0.250000*%
%TA.AperFunction,NonConductor*%
%ADD13C,0.250000*%
%TD*%
%TA.AperFunction,SMDPad,CuDef*%
%ADD14R,2.500000X1.700000*%
%TD*%
%TA.AperFunction,SMDPad,CuDef*%
%ADD15R,1.700000X2.000000*%
%TD*%
%TA.AperFunction,SMDPad,CuDef*%
%ADD16R,1.700000X2.500000*%
%TD*%
%TA.AperFunction,SMDPad,CuDef*%
%ADD17RoundRect,0.150000X-0.825000X-0.150000X0.825000X-0.150000X0.825000X0.150000X-0.825000X0.150000X0*%
%TD*%
%TA.AperFunction,SMDPad,CuDef*%
%ADD18R,2.000000X1.700000*%
%TD*%
%TA.AperFunction,Conductor*%
%ADD19C,0.500000*%
%TD*%
G04 APERTURE END LIST*
D10*
D11*
X155972380Y-136881904D02*
X155972380Y-131881904D01*
X158829523Y-136881904D01*
X158829523Y-131881904D01*
X161210476Y-136881904D02*
X161210476Y-131881904D01*
X164067619Y-136881904D01*
X164067619Y-131881904D01*
D12*
D13*
X155734285Y-127627142D02*
X156448571Y-129627142D01*
X157162857Y-127627142D01*
X159877142Y-129627142D02*
X158162857Y-129627142D01*
X159020000Y-129627142D02*
X159020000Y-126627142D01*
X158734285Y-127055714D01*
X158448571Y-127341428D01*
X158162857Y-127484285D01*
X161162857Y-129341428D02*
X161305714Y-129484285D01*
X161162857Y-129627142D01*
X161020000Y-129484285D01*
X161162857Y-129341428D01*
X161162857Y-129627142D01*
X163162857Y-126627142D02*
X163448571Y-126627142D01*
X163734285Y-126770000D01*
X163877142Y-126912857D01*
X164020000Y-127198571D01*
X164162857Y-127770000D01*
X164162857Y-128484285D01*
X164020000Y-129055714D01*
X163877142Y-129341428D01*
X163734285Y-129484285D01*
X163448571Y-129627142D01*
X163162857Y-129627142D01*
X162877142Y-129484285D01*
X162734285Y-129341428D01*
X162591428Y-129055714D01*
X162448571Y-128484285D01*
X162448571Y-127770000D01*
X162591428Y-127198571D01*
X162734285Y-126912857D01*
X162877142Y-126770000D01*
X163162857Y-126627142D01*
D14*
%TO.P,J4,1*%
%TO.N,Net-(J3-Pad2)*%
X175500000Y-124480000D03*
%TO.P,J4,2*%
%TO.N,Net-(J3-Pad1)*%
X175500000Y-127020000D03*
%TD*%
D15*
%TO.P,D1,1,K*%
%TO.N,Net-(D1-Pad1)*%
X157480000Y-117570000D03*
%TO.P,D1,2,A*%
%TO.N,Net-(D1-Pad2)*%
X157480000Y-113570000D03*
%TD*%
D16*
%TO.P,J1,1,Pin_1*%
%TO.N,Net-(J1-Pad1)*%
X161300000Y-107710000D03*
%TO.P,J1,2,Pin_2*%
%TO.N,Net-(J1-Pad2)*%
X163840000Y-107710000D03*
%TO.P,J1,3,Pin_3*%
%TO.N,Net-(J1-Pad3)*%
X166380000Y-107710000D03*
%TO.P,J1,4,Pin_4*%
X168920000Y-107710000D03*
%TD*%
D14*
%TO.P,J2,1,Pin_1*%
%TO.N,Net-(J1-Pad3)*%
X172960000Y-111770000D03*
%TO.P,J2,2,Pin_2*%
%TO.N,Net-(J2-Pad2)*%
X172960000Y-114310000D03*
%TO.P,J2,3,Pin_3*%
%TO.N,Net-(J2-Pad3)*%
X172960000Y-116850000D03*
%TO.P,J2,4,Pin_4*%
%TO.N,Net-(J2-Pad4)*%
X172960000Y-119390000D03*
%TD*%
D16*
%TO.P,J3,1*%
%TO.N,Net-(J3-Pad1)*%
X177780000Y-132320000D03*
%TO.P,J3,2*%
%TO.N,Net-(J3-Pad2)*%
X175240000Y-132320000D03*
%TD*%
D17*
%TO.P,U1,1,VCC*%
%TO.N,Net-(J1-Pad1)*%
X162625000Y-113665000D03*
%TO.P,U1,2,PA6_BLINK*%
%TO.N,Net-(D1-Pad2)*%
X162625000Y-114935000D03*
%TO.P,U1,3,PA7*%
%TO.N,unconnected-(U1-Pad3)*%
X162625000Y-116205000D03*
%TO.P,U1,4,PA1_TX*%
%TO.N,Net-(J2-Pad4)*%
X162625000Y-117475000D03*
%TO.P,U1,5,PA2_RX*%
%TO.N,Net-(J2-Pad3)*%
X167575000Y-117475000D03*
%TO.P,U1,6,PA0_UPDI*%
%TO.N,Net-(J1-Pad2)*%
X167575000Y-116205000D03*
%TO.P,U1,7,PA3_VOLTAGESENSOR*%
%TO.N,Net-(J2-Pad2)*%
X167575000Y-114935000D03*
%TO.P,U1,8,GND*%
%TO.N,Net-(J1-Pad3)*%
X167575000Y-113665000D03*
%TD*%
D18*
%TO.P,R1,1*%
%TO.N,Net-(J1-Pad3)*%
X167100000Y-121920000D03*
%TO.P,R1,2*%
%TO.N,Net-(D1-Pad1)*%
X163100000Y-121920000D03*
%TD*%
D19*
%TO.N,Net-(J3-Pad1)*%
X175500000Y-127240000D02*
X177800000Y-129540000D01*
X177800000Y-129540000D02*
X177780000Y-129560000D01*
X175500000Y-127020000D02*
X175500000Y-127240000D01*
X177780000Y-129560000D02*
X177780000Y-132320000D01*
%TO.N,Net-(J3-Pad2)*%
X172720000Y-129800000D02*
X175240000Y-132320000D01*
X172720000Y-124460000D02*
X172720000Y-129800000D01*
X172740000Y-124480000D02*
X172720000Y-124460000D01*
X175500000Y-124480000D02*
X172740000Y-124480000D01*
%TO.N,Net-(D1-Pad2)*%
X160655000Y-114935000D02*
X162625000Y-114935000D01*
X157480000Y-113570000D02*
X159290000Y-113570000D01*
X159290000Y-113570000D02*
X160655000Y-114935000D01*
%TO.N,Net-(D1-Pad1)*%
X157480000Y-119380000D02*
X160020000Y-121920000D01*
X160020000Y-121920000D02*
X163100000Y-121920000D01*
X157480000Y-117570000D02*
X157480000Y-119380000D01*
%TO.N,Net-(J1-Pad2)*%
X165100000Y-115570000D02*
X165735000Y-116205000D01*
X163840000Y-107710000D02*
X163840000Y-109230000D01*
X165735000Y-116205000D02*
X167575000Y-116205000D01*
X165100000Y-110490000D02*
X165100000Y-115570000D01*
X163840000Y-109230000D02*
X165100000Y-110490000D01*
%TO.N,Net-(J1-Pad1)*%
X161300000Y-109230000D02*
X162625000Y-110555000D01*
X161300000Y-107710000D02*
X161300000Y-109230000D01*
X162625000Y-110555000D02*
X162625000Y-113665000D01*
%TO.N,Net-(J2-Pad2)*%
X170190000Y-114310000D02*
X170180000Y-114300000D01*
X170180000Y-114300000D02*
X169545000Y-114935000D01*
X169545000Y-114935000D02*
X167575000Y-114935000D01*
X172960000Y-114310000D02*
X170190000Y-114310000D01*
%TO.N,Net-(J2-Pad3)*%
X170190000Y-116850000D02*
X170180000Y-116840000D01*
X172960000Y-116850000D02*
X170190000Y-116850000D01*
X170180000Y-116840000D02*
X169545000Y-117475000D01*
X169545000Y-117475000D02*
X167575000Y-117475000D01*
%TO.N,Net-(J2-Pad4)*%
X164540000Y-119390000D02*
X162625000Y-117475000D01*
X172960000Y-119390000D02*
X164540000Y-119390000D01*
%TO.N,Net-(J1-Pad3)*%
X168920000Y-111220000D02*
X168920000Y-107710000D01*
X167100000Y-121920000D02*
X175260000Y-121920000D01*
X175270000Y-111770000D02*
X172960000Y-111770000D01*
X176530000Y-120650000D02*
X176530000Y-113030000D01*
X176530000Y-113030000D02*
X175270000Y-111770000D01*
X169470000Y-111770000D02*
X168920000Y-111220000D01*
X166380000Y-107710000D02*
X168920000Y-107710000D01*
X167575000Y-113665000D02*
X169470000Y-111770000D01*
X169470000Y-111770000D02*
X172960000Y-111770000D01*
X175260000Y-121920000D02*
X176530000Y-120650000D01*
%TD*%
M02*
